<mxfile host="app.diagrams.net" agent="Mozilla/5.0 (Macintosh; Intel Mac OS X 10_15_7) AppleWebKit/605.1.15 (KHTML, like Gecko) Version/18.1 Safari/605.1.15" version="24.8.4" pages="2">
  <diagram name="Page-1" id="ZRCa9DoTGLpkMhHUa6WN">
    <mxGraphModel dx="1142" dy="1723" grid="1" gridSize="10" guides="1" tooltips="1" connect="1" arrows="1" fold="1" page="1" pageScale="1" pageWidth="850" pageHeight="1100" math="0" shadow="0">
      <root>
        <mxCell id="0" />
        <mxCell id="1" parent="0" />
        <mxCell id="_fHJ9euTRaIsmMugEJln-17" value="&lt;p style=&quot;margin:0px;margin-top:4px;text-align:center;&quot;&gt;&lt;i&gt;&amp;lt;&amp;lt;Interface&amp;gt;&amp;gt;&lt;/i&gt;&lt;br&gt;IRpcCommand&lt;/p&gt;&lt;p style=&quot;margin:0px;margin-left:4px;&quot;&gt;&lt;br&gt;&lt;/p&gt;&lt;hr size=&quot;1&quot; style=&quot;border-style:solid;&quot;&gt;&lt;p style=&quot;margin:0px;margin-left:4px;&quot;&gt;+ getFullyQualifiedName(): string&lt;br&gt;&lt;br&gt;&lt;/p&gt;&lt;p style=&quot;margin:0px;margin-left:4px;&quot;&gt;+ getArguments()&lt;br&gt;&lt;/p&gt;&lt;p style=&quot;margin:0px;margin-left:4px;&quot;&gt;&lt;br&gt;&lt;/p&gt;&lt;p style=&quot;margin:0px;margin-left:4px;&quot;&gt;+ getReturnType(): ExpressionType&lt;br&gt;&lt;/p&gt;" style="verticalAlign=top;align=left;overflow=fill;html=1;whiteSpace=wrap;" parent="1" vertex="1">
          <mxGeometry x="960" y="-1070" width="210" height="140" as="geometry" />
        </mxCell>
        <mxCell id="_fHJ9euTRaIsmMugEJln-18" value="&lt;p style=&quot;margin:0px;margin-top:4px;text-align:center;&quot;&gt;&lt;i&gt;&amp;lt;&amp;lt;Interface&amp;gt;&amp;gt;&lt;/i&gt;&lt;br&gt;IExpressionValue&lt;br&gt;&lt;/p&gt;&lt;p style=&quot;margin:0px;margin-left:4px;&quot;&gt;&lt;br&gt;&lt;/p&gt;&lt;hr size=&quot;1&quot; style=&quot;border-style:solid;&quot;&gt;&lt;p style=&quot;margin:0px;margin-left:4px;&quot;&gt;+ getName(): string&lt;br&gt;&lt;br&gt;&lt;/p&gt;&lt;p style=&quot;margin:0px;margin-left:4px;&quot;&gt;+ getType(): ExpressionType&lt;br&gt;&lt;/p&gt;&lt;p style=&quot;margin:0px;margin-left:4px;&quot;&gt;&lt;br&gt;&lt;/p&gt;&lt;p style=&quot;margin:0px;margin-left:4px;&quot;&gt;+ readAsInteger(): int&lt;br&gt;&lt;/p&gt;&lt;p style=&quot;margin:0px;margin-left:4px;&quot;&gt;&lt;br&gt;&lt;/p&gt;&lt;p style=&quot;margin:0px;margin-left:4px;&quot;&gt;+ readAsString(): string&lt;br&gt;&lt;/p&gt;" style="verticalAlign=top;align=left;overflow=fill;html=1;whiteSpace=wrap;" parent="1" vertex="1">
          <mxGeometry x="1280" y="-1050" width="210" height="170" as="geometry" />
        </mxCell>
        <mxCell id="_fHJ9euTRaIsmMugEJln-19" value="&lt;p style=&quot;margin:0px;margin-top:4px;text-align:center;&quot;&gt;&lt;i&gt;&amp;lt;&amp;lt;Enumerate&amp;gt;&amp;gt;&lt;/i&gt;&lt;br&gt;ExpressionType&lt;/p&gt;&lt;p style=&quot;margin:0px;margin-left:4px;&quot;&gt;&lt;br&gt;&lt;/p&gt;&lt;hr size=&quot;1&quot; style=&quot;border-style:solid;&quot;&gt;&lt;p style=&quot;margin:0px;margin-left:4px;&quot;&gt;+ isIntegralType(): bool&lt;br&gt;&lt;br&gt;&lt;/p&gt;&lt;p style=&quot;margin:0px;margin-left:4px;&quot;&gt;+ isStringType(): bool&lt;br&gt;&lt;/p&gt;&lt;p style=&quot;margin:0px;margin-left:4px;&quot;&gt;&lt;br&gt;&lt;/p&gt;&lt;p style=&quot;margin:0px;margin-left:4px;&quot;&gt;+ isVoidType(): bool&lt;br&gt;&lt;/p&gt;" style="verticalAlign=top;align=left;overflow=fill;html=1;whiteSpace=wrap;" parent="1" vertex="1">
          <mxGeometry x="1280" y="-850" width="210" height="140" as="geometry" />
        </mxCell>
        <mxCell id="_fHJ9euTRaIsmMugEJln-20" value="&lt;p style=&quot;margin:0px;margin-top:4px;text-align:center;&quot;&gt;&lt;i&gt;&amp;lt;&amp;lt;Interface&amp;gt;&amp;gt;&lt;/i&gt;&lt;br&gt;IMessage&lt;/p&gt;&lt;p style=&quot;margin:0px;margin-left:4px;&quot;&gt;&lt;br&gt;&lt;/p&gt;&lt;hr size=&quot;1&quot; style=&quot;border-style:solid;&quot;&gt;&lt;p style=&quot;margin:0px;margin-left:4px;&quot;&gt;+ serialize(): byte[]&amp;nbsp;&lt;br&gt;&lt;/p&gt;" style="verticalAlign=top;align=left;overflow=fill;html=1;whiteSpace=wrap;" parent="1" vertex="1">
          <mxGeometry x="700" y="-1070" width="210" height="90" as="geometry" />
        </mxCell>
        <mxCell id="_fHJ9euTRaIsmMugEJln-21" value="&lt;p style=&quot;margin:0px;margin-top:4px;text-align:center;&quot;&gt;&lt;i&gt;&amp;lt;&amp;lt;Interface&amp;gt;&amp;gt;&lt;/i&gt;&lt;br&gt;IConnection&lt;/p&gt;&lt;p style=&quot;margin:0px;margin-left:4px;&quot;&gt;&lt;br&gt;&lt;/p&gt;&lt;hr size=&quot;1&quot; style=&quot;border-style:solid;&quot;&gt;&lt;p style=&quot;margin:0px;margin-left:4px;&quot;&gt;+ connect()&lt;br&gt;&lt;br&gt;&lt;/p&gt;&lt;p style=&quot;margin:0px;margin-left:4px;&quot;&gt;+ disconnect()&lt;br&gt;&lt;/p&gt;&lt;p style=&quot;margin:0px;margin-left:4px;&quot;&gt;&lt;br&gt;&lt;/p&gt;&lt;p style=&quot;margin:0px;margin-left:4px;&quot;&gt;+ isConnected(): bool&lt;/p&gt;&lt;p style=&quot;margin:0px;margin-left:4px;&quot;&gt;&lt;br&gt;&lt;/p&gt;&lt;p style=&quot;margin:0px;margin-left:4px;&quot;&gt;+ send(IMessage, ICmdListener)&lt;br&gt;&lt;/p&gt;" style="verticalAlign=top;align=left;overflow=fill;html=1;whiteSpace=wrap;" parent="1" vertex="1">
          <mxGeometry x="160" y="-1070" width="200" height="160" as="geometry" />
        </mxCell>
        <mxCell id="_fHJ9euTRaIsmMugEJln-22" value="&lt;p style=&quot;margin:0px;margin-top:4px;text-align:center;&quot;&gt;&lt;i&gt;&amp;lt;&amp;lt;Interface&amp;gt;&amp;gt;&lt;/i&gt;&lt;br&gt;IHttpRequestor&lt;/p&gt;&lt;p style=&quot;margin:0px;margin-left:4px;&quot;&gt;&lt;br&gt;&lt;/p&gt;&lt;hr size=&quot;1&quot; style=&quot;border-style:solid;&quot;&gt;&lt;p style=&quot;margin:0px;margin-left:4px;&quot;&gt;+ post(IMessage)&lt;br&gt;&lt;br&gt;&lt;/p&gt;&lt;p style=&quot;margin:0px;margin-left:4px;&quot;&gt;+ get(IMessage): string&lt;/p&gt;" style="verticalAlign=top;align=left;overflow=fill;html=1;whiteSpace=wrap;" parent="1" vertex="1">
          <mxGeometry x="440" y="-1020" width="210" height="110" as="geometry" />
        </mxCell>
        <mxCell id="_fHJ9euTRaIsmMugEJln-23" value="HttpRequestor" style="swimlane;fontStyle=0;childLayout=stackLayout;horizontal=1;startSize=26;fillColor=none;horizontalStack=0;resizeParent=1;resizeParentMax=0;resizeLast=0;collapsible=1;marginBottom=0;whiteSpace=wrap;html=1;" parent="1" vertex="1">
          <mxGeometry x="360" y="-830" width="200" height="52" as="geometry" />
        </mxCell>
        <mxCell id="_fHJ9euTRaIsmMugEJln-29" value="IRpcMessage" style="swimlane;fontStyle=0;childLayout=stackLayout;horizontal=1;startSize=26;fillColor=none;horizontalStack=0;resizeParent=1;resizeParentMax=0;resizeLast=0;collapsible=1;marginBottom=0;whiteSpace=wrap;html=1;" parent="1" vertex="1">
          <mxGeometry x="753" y="-860" width="210" height="52" as="geometry" />
        </mxCell>
        <mxCell id="_fHJ9euTRaIsmMugEJln-34" value="Extends" style="endArrow=block;endSize=16;endFill=0;html=1;rounded=0;entryX=0.5;entryY=1;entryDx=0;entryDy=0;exitX=0.25;exitY=0;exitDx=0;exitDy=0;" parent="1" source="_fHJ9euTRaIsmMugEJln-29" target="_fHJ9euTRaIsmMugEJln-20" edge="1">
          <mxGeometry width="160" relative="1" as="geometry">
            <mxPoint x="910" y="-850" as="sourcePoint" />
            <mxPoint x="1070" y="-850" as="targetPoint" />
            <Array as="points" />
          </mxGeometry>
        </mxCell>
        <mxCell id="_fHJ9euTRaIsmMugEJln-36" value="Extends" style="endArrow=block;endSize=16;endFill=0;html=1;rounded=0;exitX=0.75;exitY=0;exitDx=0;exitDy=0;entryX=0.5;entryY=1;entryDx=0;entryDy=0;" parent="1" source="_fHJ9euTRaIsmMugEJln-29" target="_fHJ9euTRaIsmMugEJln-17" edge="1">
          <mxGeometry width="160" relative="1" as="geometry">
            <mxPoint x="1190" y="-870" as="sourcePoint" />
            <mxPoint x="1350" y="-870" as="targetPoint" />
            <Array as="points">
              <mxPoint x="910" y="-880" />
              <mxPoint x="1065" y="-880" />
            </Array>
          </mxGeometry>
        </mxCell>
        <mxCell id="_fHJ9euTRaIsmMugEJln-39" value="Extends" style="endArrow=block;endSize=16;endFill=0;html=1;rounded=0;entryX=0.75;entryY=1;entryDx=0;entryDy=0;exitX=1.015;exitY=0.154;exitDx=0;exitDy=0;exitPerimeter=0;" parent="1" target="_fHJ9euTRaIsmMugEJln-22" edge="1">
          <mxGeometry width="160" relative="1" as="geometry">
            <mxPoint x="563" y="-799.996" as="sourcePoint" />
            <mxPoint x="555" y="-960" as="targetPoint" />
            <Array as="points">
              <mxPoint x="598" y="-800" />
            </Array>
          </mxGeometry>
        </mxCell>
        <mxCell id="_fHJ9euTRaIsmMugEJln-40" value="Extends" style="endArrow=block;endSize=16;endFill=0;html=1;rounded=0;entryX=0.75;entryY=1;entryDx=0;entryDy=0;" parent="1" target="_fHJ9euTRaIsmMugEJln-21" edge="1">
          <mxGeometry width="160" relative="1" as="geometry">
            <mxPoint x="360" y="-780" as="sourcePoint" />
            <mxPoint x="270" y="-899" as="targetPoint" />
            <Array as="points">
              <mxPoint x="310" y="-780" />
            </Array>
          </mxGeometry>
        </mxCell>
        <mxCell id="_fHJ9euTRaIsmMugEJln-41" value="1" style="endArrow=open;html=1;endSize=12;startArrow=diamondThin;startSize=14;startFill=1;edgeStyle=orthogonalEdgeStyle;align=left;verticalAlign=bottom;rounded=0;exitX=1;exitY=0.25;exitDx=0;exitDy=0;entryX=0.005;entryY=0.206;entryDx=0;entryDy=0;entryPerimeter=0;" parent="1" source="_fHJ9euTRaIsmMugEJln-17" target="_fHJ9euTRaIsmMugEJln-18" edge="1">
          <mxGeometry x="-1" y="3" relative="1" as="geometry">
            <mxPoint x="1340" y="-800" as="sourcePoint" />
            <mxPoint x="1500" y="-800" as="targetPoint" />
            <mxPoint as="offset" />
          </mxGeometry>
        </mxCell>
        <mxCell id="_fHJ9euTRaIsmMugEJln-44" value="" style="endArrow=open;endFill=1;endSize=12;html=1;rounded=0;entryX=-0.01;entryY=0.1;entryDx=0;entryDy=0;entryPerimeter=0;" parent="1" target="_fHJ9euTRaIsmMugEJln-20" edge="1">
          <mxGeometry width="160" relative="1" as="geometry">
            <mxPoint x="360" y="-1060" as="sourcePoint" />
            <mxPoint x="690" y="-1060" as="targetPoint" />
          </mxGeometry>
        </mxCell>
        <mxCell id="_fHJ9euTRaIsmMugEJln-45" value="" style="endArrow=open;endFill=1;endSize=12;html=1;rounded=0;exitX=1.005;exitY=0.164;exitDx=0;exitDy=0;exitPerimeter=0;entryX=0;entryY=0.75;entryDx=0;entryDy=0;" parent="1" source="_fHJ9euTRaIsmMugEJln-22" target="_fHJ9euTRaIsmMugEJln-20" edge="1">
          <mxGeometry width="160" relative="1" as="geometry">
            <mxPoint x="610" y="-860" as="sourcePoint" />
            <mxPoint x="770" y="-860" as="targetPoint" />
          </mxGeometry>
        </mxCell>
        <mxCell id="_fHJ9euTRaIsmMugEJln-51" value="&lt;span style=&quot;font-weight: normal;&quot;&gt;DummyRpcService&lt;/span&gt;" style="swimlane;fontStyle=1;align=center;verticalAlign=top;childLayout=stackLayout;horizontal=1;startSize=26;horizontalStack=0;resizeParent=1;resizeParentMax=0;resizeLast=0;collapsible=1;marginBottom=0;whiteSpace=wrap;html=1;" parent="1" vertex="1">
          <mxGeometry x="70" y="-780" width="160" height="112" as="geometry" />
        </mxCell>
        <mxCell id="_fHJ9euTRaIsmMugEJln-52" value="- connection : IConnection" style="text;strokeColor=none;fillColor=none;align=left;verticalAlign=top;spacingLeft=4;spacingRight=4;overflow=hidden;rotatable=0;points=[[0,0.5],[1,0.5]];portConstraint=eastwest;whiteSpace=wrap;html=1;" parent="_fHJ9euTRaIsmMugEJln-51" vertex="1">
          <mxGeometry y="26" width="160" height="26" as="geometry" />
        </mxCell>
        <mxCell id="_fHJ9euTRaIsmMugEJln-53" value="" style="line;strokeWidth=1;fillColor=none;align=left;verticalAlign=middle;spacingTop=-1;spacingLeft=3;spacingRight=3;rotatable=0;labelPosition=right;points=[];portConstraint=eastwest;strokeColor=inherit;" parent="_fHJ9euTRaIsmMugEJln-51" vertex="1">
          <mxGeometry y="52" width="160" height="8" as="geometry" />
        </mxCell>
        <mxCell id="_fHJ9euTRaIsmMugEJln-47" value="+ hello(): string" style="text;strokeColor=none;fillColor=none;align=left;verticalAlign=top;spacingLeft=4;spacingRight=4;overflow=hidden;rotatable=0;points=[[0,0.5],[1,0.5]];portConstraint=eastwest;whiteSpace=wrap;html=1;" parent="_fHJ9euTRaIsmMugEJln-51" vertex="1">
          <mxGeometry y="60" width="160" height="26" as="geometry" />
        </mxCell>
        <mxCell id="_fHJ9euTRaIsmMugEJln-49" value="+ add(int, int): int" style="text;strokeColor=none;fillColor=none;align=left;verticalAlign=top;spacingLeft=4;spacingRight=4;overflow=hidden;rotatable=0;points=[[0,0.5],[1,0.5]];portConstraint=eastwest;whiteSpace=wrap;html=1;" parent="_fHJ9euTRaIsmMugEJln-51" vertex="1">
          <mxGeometry y="86" width="160" height="26" as="geometry" />
        </mxCell>
        <mxCell id="_fHJ9euTRaIsmMugEJln-55" value="1" style="endArrow=open;html=1;endSize=12;startArrow=diamondThin;startSize=14;startFill=0;edgeStyle=orthogonalEdgeStyle;align=left;verticalAlign=bottom;rounded=0;exitX=0.5;exitY=0;exitDx=0;exitDy=0;entryX=0.47;entryY=1.013;entryDx=0;entryDy=0;entryPerimeter=0;" parent="1" source="_fHJ9euTRaIsmMugEJln-51" target="_fHJ9euTRaIsmMugEJln-21" edge="1">
          <mxGeometry x="-0.9138" y="-10" relative="1" as="geometry">
            <mxPoint x="100" y="-830" as="sourcePoint" />
            <mxPoint x="260" y="-830" as="targetPoint" />
            <mxPoint as="offset" />
          </mxGeometry>
        </mxCell>
      </root>
    </mxGraphModel>
  </diagram>
  <diagram id="4_Q1zM8wU-QSP_x-Qk4N" name="Page-2">
    <mxGraphModel dx="1142" dy="623" grid="1" gridSize="10" guides="1" tooltips="1" connect="1" arrows="1" fold="1" page="1" pageScale="1" pageWidth="850" pageHeight="1100" math="0" shadow="0">
      <root>
        <mxCell id="0" />
        <mxCell id="1" parent="0" />
        <mxCell id="hV_kJMDdYtJ9GEIuovxq-1" value="&lt;p style=&quot;margin:0px;margin-top:6px;text-align:center;&quot;&gt;&lt;b&gt;Client&lt;/b&gt;&lt;/p&gt;&lt;hr size=&quot;1&quot; style=&quot;border-style:solid;&quot;&gt;&lt;p style=&quot;margin:0px;margin-left:8px;&quot;&gt;&lt;br&gt;&lt;/p&gt;" style="align=left;overflow=fill;html=1;dropTarget=0;whiteSpace=wrap;" vertex="1" parent="1">
          <mxGeometry x="40" y="40" width="320" height="390" as="geometry" />
        </mxCell>
        <mxCell id="hV_kJMDdYtJ9GEIuovxq-2" value="" style="shape=component;jettyWidth=8;jettyHeight=4;" vertex="1" parent="hV_kJMDdYtJ9GEIuovxq-1">
          <mxGeometry x="1" width="20" height="20" relative="1" as="geometry">
            <mxPoint x="-24" y="4" as="offset" />
          </mxGeometry>
        </mxCell>
        <mxCell id="hV_kJMDdYtJ9GEIuovxq-5" value="&lt;p style=&quot;margin:0px;margin-top:6px;text-align:center;&quot;&gt;&lt;b&gt;Proxy Service Stub&lt;/b&gt;&lt;/p&gt;" style="align=left;overflow=fill;html=1;dropTarget=0;whiteSpace=wrap;" vertex="1" parent="1">
          <mxGeometry x="120" y="177" width="180" height="30" as="geometry" />
        </mxCell>
        <mxCell id="hV_kJMDdYtJ9GEIuovxq-6" value="" style="shape=component;jettyWidth=8;jettyHeight=4;" vertex="1" parent="hV_kJMDdYtJ9GEIuovxq-5">
          <mxGeometry x="1" width="20" height="20" relative="1" as="geometry">
            <mxPoint x="-24" y="4" as="offset" />
          </mxGeometry>
        </mxCell>
        <mxCell id="hV_kJMDdYtJ9GEIuovxq-7" value="&lt;p style=&quot;margin:0px;margin-top:6px;text-align:center;&quot;&gt;&lt;b&gt;Encoding / Decoding&lt;/b&gt;&lt;/p&gt;" style="align=left;overflow=fill;html=1;dropTarget=0;whiteSpace=wrap;" vertex="1" parent="1">
          <mxGeometry x="120" y="266" width="180" height="30" as="geometry" />
        </mxCell>
        <mxCell id="hV_kJMDdYtJ9GEIuovxq-8" value="" style="shape=component;jettyWidth=8;jettyHeight=4;" vertex="1" parent="hV_kJMDdYtJ9GEIuovxq-7">
          <mxGeometry x="1" width="20" height="20" relative="1" as="geometry">
            <mxPoint x="-24" y="4" as="offset" />
          </mxGeometry>
        </mxCell>
        <mxCell id="hV_kJMDdYtJ9GEIuovxq-9" value="&lt;p style=&quot;margin:0px;margin-top:6px;text-align:center;&quot;&gt;&lt;b&gt;Transport&lt;/b&gt;&lt;/p&gt;" style="align=left;overflow=fill;html=1;dropTarget=0;whiteSpace=wrap;" vertex="1" parent="1">
          <mxGeometry x="120" y="360" width="180" height="30" as="geometry" />
        </mxCell>
        <mxCell id="hV_kJMDdYtJ9GEIuovxq-10" value="" style="shape=component;jettyWidth=8;jettyHeight=4;" vertex="1" parent="hV_kJMDdYtJ9GEIuovxq-9">
          <mxGeometry x="1" width="20" height="20" relative="1" as="geometry">
            <mxPoint x="-21" y="4" as="offset" />
          </mxGeometry>
        </mxCell>
        <mxCell id="hV_kJMDdYtJ9GEIuovxq-21" value="&lt;p style=&quot;margin:0px;margin-top:6px;text-align:center;&quot;&gt;&lt;b&gt;ClientApp&lt;/b&gt;&lt;/p&gt;" style="align=left;overflow=fill;html=1;dropTarget=0;whiteSpace=wrap;" vertex="1" parent="1">
          <mxGeometry x="120" y="95" width="180" height="30" as="geometry" />
        </mxCell>
        <mxCell id="hV_kJMDdYtJ9GEIuovxq-22" value="" style="shape=component;jettyWidth=8;jettyHeight=4;" vertex="1" parent="hV_kJMDdYtJ9GEIuovxq-21">
          <mxGeometry x="1" width="20" height="20" relative="1" as="geometry">
            <mxPoint x="-24" y="4" as="offset" />
          </mxGeometry>
        </mxCell>
        <mxCell id="hV_kJMDdYtJ9GEIuovxq-23" value="" style="endArrow=open;endFill=1;endSize=12;html=1;rounded=0;exitX=0.161;exitY=0.933;exitDx=0;exitDy=0;exitPerimeter=0;entryX=0.161;entryY=0.133;entryDx=0;entryDy=0;entryPerimeter=0;" edge="1" parent="1" source="hV_kJMDdYtJ9GEIuovxq-21" target="hV_kJMDdYtJ9GEIuovxq-5">
          <mxGeometry width="160" relative="1" as="geometry">
            <mxPoint x="140" y="140" as="sourcePoint" />
            <mxPoint x="150" y="210" as="targetPoint" />
          </mxGeometry>
        </mxCell>
        <mxCell id="hV_kJMDdYtJ9GEIuovxq-24" value="" style="endArrow=open;endFill=1;endSize=12;html=1;rounded=0;exitX=0.156;exitY=0.967;exitDx=0;exitDy=0;exitPerimeter=0;entryX=0.156;entryY=0.133;entryDx=0;entryDy=0;entryPerimeter=0;" edge="1" parent="1" source="hV_kJMDdYtJ9GEIuovxq-5" target="hV_kJMDdYtJ9GEIuovxq-7">
          <mxGeometry width="160" relative="1" as="geometry">
            <mxPoint x="150" y="240" as="sourcePoint" />
            <mxPoint x="150" y="317" as="targetPoint" />
          </mxGeometry>
        </mxCell>
        <mxCell id="hV_kJMDdYtJ9GEIuovxq-25" value="" style="endArrow=open;endFill=1;endSize=12;html=1;rounded=0;" edge="1" parent="1">
          <mxGeometry width="160" relative="1" as="geometry">
            <mxPoint x="150" y="297" as="sourcePoint" />
            <mxPoint x="150" y="359" as="targetPoint" />
          </mxGeometry>
        </mxCell>
        <mxCell id="hV_kJMDdYtJ9GEIuovxq-26" value="" style="endArrow=open;endFill=1;endSize=12;html=1;rounded=0;exitX=0.75;exitY=0;exitDx=0;exitDy=0;entryX=0.75;entryY=1;entryDx=0;entryDy=0;" edge="1" parent="1" source="hV_kJMDdYtJ9GEIuovxq-5" target="hV_kJMDdYtJ9GEIuovxq-21">
          <mxGeometry width="160" relative="1" as="geometry">
            <mxPoint x="310" y="160" as="sourcePoint" />
            <mxPoint x="470" y="160" as="targetPoint" />
          </mxGeometry>
        </mxCell>
        <mxCell id="hV_kJMDdYtJ9GEIuovxq-27" value="" style="endArrow=open;endFill=1;endSize=12;html=1;rounded=0;exitX=0.75;exitY=0;exitDx=0;exitDy=0;entryX=0.75;entryY=1;entryDx=0;entryDy=0;" edge="1" parent="1" source="hV_kJMDdYtJ9GEIuovxq-7" target="hV_kJMDdYtJ9GEIuovxq-5">
          <mxGeometry width="160" relative="1" as="geometry">
            <mxPoint x="260" y="261" as="sourcePoint" />
            <mxPoint x="250" y="209" as="targetPoint" />
          </mxGeometry>
        </mxCell>
        <mxCell id="hV_kJMDdYtJ9GEIuovxq-28" value="" style="endArrow=open;endFill=1;endSize=12;html=1;rounded=0;exitX=0.75;exitY=0;exitDx=0;exitDy=0;entryX=0.75;entryY=1;entryDx=0;entryDy=0;" edge="1" parent="1" source="hV_kJMDdYtJ9GEIuovxq-9" target="hV_kJMDdYtJ9GEIuovxq-7">
          <mxGeometry width="160" relative="1" as="geometry">
            <mxPoint x="260" y="348" as="sourcePoint" />
            <mxPoint x="260" y="296" as="targetPoint" />
          </mxGeometry>
        </mxCell>
        <mxCell id="hV_kJMDdYtJ9GEIuovxq-31" value="&lt;p style=&quot;margin:0px;margin-top:6px;text-align:center;&quot;&gt;&lt;b&gt;Server&lt;/b&gt;&lt;/p&gt;&lt;hr size=&quot;1&quot; style=&quot;border-style:solid;&quot;&gt;&lt;p style=&quot;margin:0px;margin-left:8px;&quot;&gt;&lt;br&gt;&lt;/p&gt;" style="align=left;overflow=fill;html=1;dropTarget=0;whiteSpace=wrap;" vertex="1" parent="1">
          <mxGeometry x="480" y="40" width="320" height="390" as="geometry" />
        </mxCell>
        <mxCell id="hV_kJMDdYtJ9GEIuovxq-32" value="" style="shape=component;jettyWidth=8;jettyHeight=4;" vertex="1" parent="hV_kJMDdYtJ9GEIuovxq-31">
          <mxGeometry x="1" width="20" height="20" relative="1" as="geometry">
            <mxPoint x="-24" y="4" as="offset" />
          </mxGeometry>
        </mxCell>
        <mxCell id="hV_kJMDdYtJ9GEIuovxq-33" value="&lt;p style=&quot;margin:0px;margin-top:6px;text-align:center;&quot;&gt;&lt;b&gt;Server Stub&lt;/b&gt;&lt;/p&gt;" style="align=left;overflow=fill;html=1;dropTarget=0;whiteSpace=wrap;" vertex="1" parent="1">
          <mxGeometry x="560" y="177" width="180" height="30" as="geometry" />
        </mxCell>
        <mxCell id="hV_kJMDdYtJ9GEIuovxq-34" value="" style="shape=component;jettyWidth=8;jettyHeight=4;" vertex="1" parent="hV_kJMDdYtJ9GEIuovxq-33">
          <mxGeometry x="1" width="20" height="20" relative="1" as="geometry">
            <mxPoint x="-24" y="4" as="offset" />
          </mxGeometry>
        </mxCell>
        <mxCell id="hV_kJMDdYtJ9GEIuovxq-35" value="&lt;p style=&quot;margin:0px;margin-top:6px;text-align:center;&quot;&gt;&lt;b&gt;Encoding / Decoding&lt;/b&gt;&lt;/p&gt;" style="align=left;overflow=fill;html=1;dropTarget=0;whiteSpace=wrap;" vertex="1" parent="1">
          <mxGeometry x="560" y="266" width="180" height="30" as="geometry" />
        </mxCell>
        <mxCell id="hV_kJMDdYtJ9GEIuovxq-36" value="" style="shape=component;jettyWidth=8;jettyHeight=4;" vertex="1" parent="hV_kJMDdYtJ9GEIuovxq-35">
          <mxGeometry x="1" width="20" height="20" relative="1" as="geometry">
            <mxPoint x="-24" y="4" as="offset" />
          </mxGeometry>
        </mxCell>
        <mxCell id="hV_kJMDdYtJ9GEIuovxq-37" value="&lt;p style=&quot;margin:0px;margin-top:6px;text-align:center;&quot;&gt;&lt;b&gt;Transport&lt;/b&gt;&lt;/p&gt;" style="align=left;overflow=fill;html=1;dropTarget=0;whiteSpace=wrap;" vertex="1" parent="1">
          <mxGeometry x="560" y="360" width="180" height="30" as="geometry" />
        </mxCell>
        <mxCell id="hV_kJMDdYtJ9GEIuovxq-38" value="" style="shape=component;jettyWidth=8;jettyHeight=4;" vertex="1" parent="hV_kJMDdYtJ9GEIuovxq-37">
          <mxGeometry x="1" width="20" height="20" relative="1" as="geometry">
            <mxPoint x="-21" y="4" as="offset" />
          </mxGeometry>
        </mxCell>
        <mxCell id="hV_kJMDdYtJ9GEIuovxq-39" value="&lt;p style=&quot;margin:0px;margin-top:6px;text-align:center;&quot;&gt;&lt;b&gt;Application Service&lt;/b&gt;&lt;/p&gt;" style="align=left;overflow=fill;html=1;dropTarget=0;whiteSpace=wrap;" vertex="1" parent="1">
          <mxGeometry x="560" y="95" width="180" height="30" as="geometry" />
        </mxCell>
        <mxCell id="hV_kJMDdYtJ9GEIuovxq-40" value="" style="shape=component;jettyWidth=8;jettyHeight=4;" vertex="1" parent="hV_kJMDdYtJ9GEIuovxq-39">
          <mxGeometry x="1" width="20" height="20" relative="1" as="geometry">
            <mxPoint x="-24" y="4" as="offset" />
          </mxGeometry>
        </mxCell>
        <mxCell id="hV_kJMDdYtJ9GEIuovxq-41" value="" style="endArrow=open;endFill=1;endSize=12;html=1;rounded=0;exitX=0.161;exitY=0.933;exitDx=0;exitDy=0;exitPerimeter=0;entryX=0.161;entryY=0.133;entryDx=0;entryDy=0;entryPerimeter=0;" edge="1" parent="1" source="hV_kJMDdYtJ9GEIuovxq-39" target="hV_kJMDdYtJ9GEIuovxq-33">
          <mxGeometry width="160" relative="1" as="geometry">
            <mxPoint x="580" y="140" as="sourcePoint" />
            <mxPoint x="590" y="210" as="targetPoint" />
          </mxGeometry>
        </mxCell>
        <mxCell id="hV_kJMDdYtJ9GEIuovxq-42" value="" style="endArrow=open;endFill=1;endSize=12;html=1;rounded=0;exitX=0.156;exitY=0.967;exitDx=0;exitDy=0;exitPerimeter=0;entryX=0.156;entryY=0.133;entryDx=0;entryDy=0;entryPerimeter=0;" edge="1" parent="1" source="hV_kJMDdYtJ9GEIuovxq-33" target="hV_kJMDdYtJ9GEIuovxq-35">
          <mxGeometry width="160" relative="1" as="geometry">
            <mxPoint x="590" y="240" as="sourcePoint" />
            <mxPoint x="590" y="317" as="targetPoint" />
          </mxGeometry>
        </mxCell>
        <mxCell id="hV_kJMDdYtJ9GEIuovxq-43" value="" style="endArrow=open;endFill=1;endSize=12;html=1;rounded=0;" edge="1" parent="1">
          <mxGeometry width="160" relative="1" as="geometry">
            <mxPoint x="590" y="297" as="sourcePoint" />
            <mxPoint x="590" y="359" as="targetPoint" />
          </mxGeometry>
        </mxCell>
        <mxCell id="hV_kJMDdYtJ9GEIuovxq-44" value="" style="endArrow=open;endFill=1;endSize=12;html=1;rounded=0;exitX=0.75;exitY=0;exitDx=0;exitDy=0;entryX=0.75;entryY=1;entryDx=0;entryDy=0;" edge="1" parent="1" source="hV_kJMDdYtJ9GEIuovxq-33" target="hV_kJMDdYtJ9GEIuovxq-39">
          <mxGeometry width="160" relative="1" as="geometry">
            <mxPoint x="750" y="160" as="sourcePoint" />
            <mxPoint x="910" y="160" as="targetPoint" />
          </mxGeometry>
        </mxCell>
        <mxCell id="hV_kJMDdYtJ9GEIuovxq-45" value="" style="endArrow=open;endFill=1;endSize=12;html=1;rounded=0;exitX=0.75;exitY=0;exitDx=0;exitDy=0;entryX=0.75;entryY=1;entryDx=0;entryDy=0;" edge="1" parent="1" source="hV_kJMDdYtJ9GEIuovxq-35" target="hV_kJMDdYtJ9GEIuovxq-33">
          <mxGeometry width="160" relative="1" as="geometry">
            <mxPoint x="700" y="261" as="sourcePoint" />
            <mxPoint x="690" y="209" as="targetPoint" />
          </mxGeometry>
        </mxCell>
        <mxCell id="hV_kJMDdYtJ9GEIuovxq-46" value="" style="endArrow=open;endFill=1;endSize=12;html=1;rounded=0;exitX=0.75;exitY=0;exitDx=0;exitDy=0;entryX=0.75;entryY=1;entryDx=0;entryDy=0;" edge="1" parent="1" source="hV_kJMDdYtJ9GEIuovxq-37" target="hV_kJMDdYtJ9GEIuovxq-35">
          <mxGeometry width="160" relative="1" as="geometry">
            <mxPoint x="700" y="348" as="sourcePoint" />
            <mxPoint x="700" y="296" as="targetPoint" />
          </mxGeometry>
        </mxCell>
        <mxCell id="hV_kJMDdYtJ9GEIuovxq-47" value="" style="endArrow=open;endFill=1;endSize=12;html=1;rounded=0;exitX=1;exitY=0.25;exitDx=0;exitDy=0;entryX=0;entryY=0.25;entryDx=0;entryDy=0;" edge="1" parent="1" source="hV_kJMDdYtJ9GEIuovxq-9" target="hV_kJMDdYtJ9GEIuovxq-37">
          <mxGeometry width="160" relative="1" as="geometry">
            <mxPoint x="330" y="370" as="sourcePoint" />
            <mxPoint x="490" y="370" as="targetPoint" />
          </mxGeometry>
        </mxCell>
        <mxCell id="hV_kJMDdYtJ9GEIuovxq-48" value="" style="endArrow=open;endFill=1;endSize=12;html=1;rounded=0;exitX=0;exitY=0.75;exitDx=0;exitDy=0;entryX=0.75;entryY=1;entryDx=0;entryDy=0;" edge="1" parent="1" source="hV_kJMDdYtJ9GEIuovxq-37" target="hV_kJMDdYtJ9GEIuovxq-10">
          <mxGeometry width="160" relative="1" as="geometry">
            <mxPoint x="450" y="460" as="sourcePoint" />
            <mxPoint x="610" y="460" as="targetPoint" />
          </mxGeometry>
        </mxCell>
      </root>
    </mxGraphModel>
  </diagram>
</mxfile>
